# xmcd
#
# Track frame offsets:
#	150
#	14686
#	36276
#	51126
#	65523
#	78740
#	94902
#	111393
#	130791
#	147696
#	162881
#	176223
#	191884
#	205113
#	222728
#	240899
#	254080
#	266967
#
# Disc length: 3738 seconds
#
# Revision: 1
# Processed by: cddbd v1.4PL0 Copyright (c) Steve Scherf et al.
# Submitted via: audiograbber 1.80.04
#
DISCID=250e9812
DTITLE=Brooks and Dunn - Greatest Hits
DYEAR=1900
DGENRE=
TTITLE0=Honky Tonk Truth
TTITLE1=You're Gonna Miss Me When I'm Gone
TTITLE2=Boot Scootin' Boogie
TTITLE3=He's Got You
TTITLE4=Hard Workin' Man
TTITLE5=That Ain't No Way To Go
TTITLE6=Rock My World
TTITLE7=Neon Moon
TTITLE8=Lost And Found
TTITLE9=She's Not Cheatin' Kind
TTITLE10=Brand New Man
TTITLE11=Days Of Thunder
TTITLE12=We'll Burn That Bridge
TTITLE13=She Used To Be Mine
TTITLE14=Mamma Don't Get Dressed For Nothing
TTITLE15=My Next Broken Heart
TTITLE16=Whiskey Under The Bridge
TTITLE17=Little Miss Honky Tonk
EXTD=
EXTT0=
EXTT1=
EXTT2=
EXTT3=
EXTT4=
EXTT5=
EXTT6=
EXTT7=
EXTT8=
EXTT9=
EXTT10=
EXTT11=
EXTT12=
EXTT13=
EXTT14=
EXTT15=
EXTT16=
EXTT17=
PLAYORDER=
